<?xml version="1.0" standalone="no"?>
<!DOCTYPE svg PUBLIC "-//W3C//DTD SVG 20010904//EN"
 "http://www.w3.org/TR/2001/REC-SVG-20010904/DTD/svg10.dtd">
<svg version="1.0" xmlns="http://www.w3.org/2000/svg"
 width="800.000000pt" height="800.000000pt" viewBox="0 0 800.000000 800.000000"
 preserveAspectRatio="xMidYMid meet">
<metadata>
Created by potrace 1.11, written by Peter Selinger 2001-2013
</metadata>
<g transform="translate(0.000000,800.000000) scale(0.100000,-0.100000)"
fill="#000000" stroke="none">
<path d="M2900 7985 c0 -8 -11 -17 -25 -21 -14 -3 -25 -10 -25 -15 0 -5 -11
-9 -25 -9 -14 0 -25 -4 -25 -10 0 -5 -6 -10 -13 -10 -15 0 -77 -56 -93 -85 -6
-10 -19 -23 -30 -29 -23 -13 -54 -46 -54 -58 0 -4 7 -8 16 -8 10 0 14 6 11 14
-4 10 -1 13 9 9 12 -4 9 -12 -13 -42 -35 -46 -45 -58 -63 -78 -11 -12 -12 -17
-2 -21 7 -2 10 -8 7 -12 -3 -5 -12 -7 -20 -4 -18 7 -95 -70 -95 -96 0 -11 5
-20 10 -20 17 0 11 -17 -20 -63 -16 -25 -30 -50 -30 -57 0 -6 -4 -8 -10 -5 -5
3 -10 -3 -10 -14 0 -12 5 -21 11 -21 7 0 10 -12 7 -29 -3 -21 -1 -28 9 -24 7
3 13 9 13 14 0 5 4 9 8 9 5 0 9 -7 9 -15 0 -8 -4 -12 -9 -9 -4 3 -8 -13 -8
-36 0 -25 -4 -39 -10 -35 -5 3 -10 -3 -10 -15 0 -12 -5 -31 -11 -42 -7 -12 -7
-23 -2 -27 5 -3 7 -55 5 -115 -3 -72 -8 -104 -14 -95 -6 9 -7 -6 -3 -41 4 -30
11 -59 16 -65 5 -5 9 -26 9 -46 0 -21 4 -39 8 -41 4 -1 25 -56 47 -121 21 -65
49 -132 62 -150 13 -17 23 -37 23 -44 0 -7 5 -13 10 -13 6 0 10 -7 10 -15 0
-8 9 -30 20 -50 11 -20 20 -44 20 -55 0 -30 21 -69 42 -75 10 -4 18 -13 18
-20 0 -8 9 -30 20 -50 11 -20 20 -42 20 -50 0 -8 5 -15 10 -15 6 0 10 -7 10
-15 0 -8 5 -15 11 -15 8 0 9 11 4 33 -4 17 -9 119 -12 225 -4 194 -4 198 30
193 9 -1 9 6 -3 68 -19 102 -13 192 10 151 5 -8 16 -24 25 -35 15 -19 16 -14
11 70 -3 50 -8 102 -11 116 -10 41 21 46 41 7 25 -48 76 -99 93 -93 8 3 18 0
23 -7 6 -11 10 -11 16 0 7 10 13 7 26 -12 19 -30 36 -34 36 -8 0 13 5 11 24
-11 13 -15 33 -29 44 -30 12 0 18 -6 15 -14 -3 -7 0 -13 7 -13 12 0 10 27 -6
80 -7 23 -4 22 37 -13 24 -21 55 -49 69 -62 14 -14 32 -25 40 -25 13 0 13 1 0
10 -8 5 -11 10 -6 10 4 0 1 11 -8 25 -9 13 -16 33 -16 44 0 11 -4 23 -10 26
-5 3 -10 15 -10 26 0 10 5 19 10 19 6 0 10 -9 10 -20 0 -11 5 -20 10 -20 6 0
10 -7 10 -15 0 -8 5 -15 10 -15 6 0 10 -7 10 -15 0 -8 5 -15 10 -15 6 0 10 -7
10 -15 0 -26 17 -16 31 17 8 20 12 65 11 120 -2 48 1 88 6 88 4 0 25 -33 45
-73 19 -41 43 -79 51 -86 9 -8 16 -18 16 -25 0 -16 112 -116 130 -116 13 0 13
1 0 10 -13 9 -13 10 0 10 8 0 32 -4 52 -9 26 -6 39 -5 42 3 3 7 5 7 5 -1 1
-16 41 -62 65 -75 14 -7 17 -7 11 2 -4 7 -2 16 6 20 10 7 7 19 -14 58 -32 58
-36 102 -9 97 9 -1 16 -10 16 -18 -1 -9 2 -15 6 -14 11 3 83 -76 101 -110 17
-35 89 -104 126 -124 15 -7 30 -16 33 -19 13 -13 98 -51 118 -53 12 -1 22 -5
22 -10 0 -5 15 -6 33 -3 46 10 66 9 117 -4 25 -7 69 -14 98 -17 l54 -5 -36 57
c-39 60 -40 91 -1 53 13 -13 48 -35 78 -51 30 -15 60 -34 67 -42 7 -8 19 -15
26 -15 10 0 14 -15 14 -54 0 -60 10 -75 33 -51 21 21 27 19 27 -10 0 -14 5
-25 10 -25 6 0 10 -11 10 -24 0 -14 5 -28 10 -31 6 -3 10 -17 10 -31 0 -13 5
-24 10 -24 6 0 10 5 10 10 0 6 4 10 8 10 12 0 32 -62 32 -98 0 -18 4 -32 9
-32 5 0 7 44 5 97 l-5 97 21 -19 c24 -22 23 -23 38 39 7 27 22 61 32 76 11 16
20 32 20 37 0 6 8 17 18 26 10 9 24 32 32 52 9 24 16 31 22 23 5 -8 8 -1 8 20
0 17 5 32 10 32 6 0 10 11 10 24 0 14 5 28 10 31 6 4 10 -7 10 -25 0 -54 18
-23 31 53 6 39 16 76 21 82 4 5 8 20 8 35 0 39 24 121 35 120 38 -5 40 272 3
358 -10 24 -18 54 -18 68 0 13 -9 39 -20 59 -11 20 -20 44 -20 55 0 10 -5 22
-10 25 -6 4 -10 18 -10 33 1 42 -11 84 -37 124 -12 21 -23 47 -23 58 0 11 -4
20 -10 20 -5 0 -10 11 -10 24 0 14 -4 28 -10 31 -5 3 -10 15 -10 26 0 10 -4
19 -10 19 -5 0 -10 5 -10 11 0 6 -14 31 -31 56 -27 38 -30 48 -20 69 8 19 8
24 -4 24 -8 0 -15 5 -15 10 0 6 -7 10 -15 10 -8 0 -15 5 -15 11 0 5 -4 8 -9 4
-5 -3 -20 5 -33 17 -27 26 -74 57 -100 65 -10 3 -18 9 -18 14 0 5 -257 9 -594
9 -466 0 -596 -3 -600 -12 -5 -10 -7 -10 -12 0 -4 9 -70 12 -280 12 -235 0
-274 -2 -274 -15z m526 -51 c-19 -18 -21 -11 -4 19 7 14 13 17 15 10 3 -7 -3
-20 -11 -29z m913 -37 c12 -21 21 -48 21 -60 1 -28 23 -114 33 -123 9 -10 9
-94 -1 -94 -9 0 -32 72 -32 100 0 11 -4 20 -10 20 -5 0 -10 18 -10 39 0 22 -4
41 -9 43 -5 2 -12 30 -16 63 -8 66 -7 67 24 12z m-1279 4 c0 -11 -8 -26 -18
-33 -10 -7 -27 -27 -39 -43 -12 -17 -41 -40 -65 -53 -23 -12 -67 -46 -96 -76
-36 -37 -51 -48 -46 -33 14 47 85 123 177 193 34 26 64 51 65 56 7 16 22 8 22
-11z m30 -26 c-7 -9 -15 -13 -17 -11 -7 7 7 26 19 26 6 0 6 -6 -2 -15z m-230
-75 c-13 -11 -24 -20 -26 -20 -11 0 -34 14 -34 20 0 9 40 25 53 22 4 -1 7 3 7
10 0 9 3 9 12 0 9 -9 6 -16 -12 -32z m1040 4 c0 -8 -4 -12 -10 -9 -5 3 -10 10
-10 16 0 5 5 9 10 9 6 0 10 -7 10 -16z m770 -57 c0 -6 7 -19 17 -29 9 -10 13
-21 10 -24 -9 -10 -37 16 -37 33 0 8 -4 11 -10 8 -5 -3 -10 0 -10 9 0 8 -3 23
-7 33 -6 17 -5 17 15 -1 12 -11 22 -24 22 -29z m-490 -32 c14 -19 14 -19 -2
-6 -10 7 -18 18 -18 24 0 6 1 8 3 6 1 -2 9 -13 17 -24z m160 -39 c0 -19 5 -38
10 -41 6 -3 10 -15 10 -26 0 -11 -4 -17 -10 -14 -5 3 -10 15 -10 25 0 10 -4
20 -8 22 -5 2 -12 25 -15 51 -6 43 -5 47 8 33 8 -8 15 -30 15 -50z m-1560 40
c0 -17 -56 -76 -73 -76 -6 0 -18 4 -25 8 -13 9 7 31 58 65 31 20 40 21 40 3z
m367 -16 c-2 -17 -7 -33 -10 -37 -4 -3 -7 -14 -7 -24 0 -10 -6 -24 -13 -31 -7
-7 -18 -33 -24 -58 -18 -69 -37 -120 -45 -120 -5 0 -8 -11 -8 -24 0 -14 -8
-32 -17 -42 -17 -16 -18 -16 -21 -1 -5 24 -22 21 -22 -3 0 -11 -9 -35 -20 -55
-11 -20 -20 -49 -20 -65 0 -16 -4 -32 -10 -35 -6 -4 -10 17 -10 54 0 67 -8 76
-28 31 -8 -17 -17 -28 -22 -25 -4 3 -11 -5 -15 -18 -7 -19 -9 -16 -12 18 -3
23 0 41 6 43 14 5 15 82 1 82 -5 0 -10 -15 -10 -34 0 -19 -4 -38 -10 -41 -5
-3 -10 -22 -10 -41 0 -19 -4 -34 -10 -34 -5 0 -10 23 -10 50 0 28 4 50 9 50 5
0 12 22 16 48 8 61 19 80 37 65 10 -9 18 -1 35 35 12 26 33 73 48 105 26 56
48 85 88 117 18 14 18 13 3 -25 -9 -21 -21 -44 -27 -52 -6 -7 -8 -20 -5 -30 6
-15 8 -15 20 3 8 10 16 28 19 39 2 11 2 -10 -1 -47 -3 -48 -1 -68 7 -68 6 0
11 15 11 35 0 19 4 35 8 35 5 0 15 18 22 40 7 22 17 40 22 40 4 0 8 6 8 13 0
11 19 37 27 37 2 0 1 -14 0 -30z m1335 -45 c3 -16 3 -24 1 -17 -3 6 -9 12 -14
12 -5 0 -9 12 -9 27 0 35 16 19 22 -22z m-1406 9 c-4 -9 -9 -15 -11 -12 -3 3
-3 13 1 22 4 9 9 15 11 12 3 -3 3 -13 -1 -22z m1144 1 c0 -8 4 -15 9 -15 5 0
11 -11 13 -24 6 -32 -13 -24 -29 11 -16 33 -16 43 -3 43 6 0 10 -7 10 -15z
m499 -35 c0 -9 -6 -4 -14 10 -19 33 -19 49 0 24 8 -10 14 -26 14 -34z m-659
-40 c0 -10 4 -20 10 -22 5 -1 13 -19 17 -38 6 -32 5 -34 -10 -19 -22 22 -57
86 -57 104 0 8 -4 15 -10 15 -5 0 -10 9 -10 20 0 19 3 17 30 -10 17 -17 30
-39 30 -50z m-140 23 c0 -7 4 -13 8 -13 4 0 14 -16 21 -35 7 -19 17 -35 22
-35 5 0 9 -7 9 -16 0 -8 7 -22 15 -31 9 -8 13 -18 10 -22 -4 -3 -13 3 -21 14
-8 11 -21 28 -29 38 -8 9 -15 22 -15 27 0 6 -4 10 -8 10 -5 0 -14 16 -22 35
-8 19 -17 35 -22 35 -4 0 -8 10 -8 22 0 20 1 21 20 3 11 -10 20 -24 20 -32z
m-656 -20 c-4 -16 -11 -36 -15 -45 -5 -9 -9 -28 -9 -42 0 -14 -4 -26 -10 -26
-5 0 -10 -10 -10 -22 0 -25 -27 -58 -47 -58 -7 0 -13 3 -13 8 0 12 26 81 33
88 4 4 7 16 7 26 0 10 3 18 8 18 4 0 16 18 26 40 22 46 40 53 30 13z m1250 12
c3 -8 1 -15 -4 -15 -6 0 -10 7 -10 15 0 8 2 15 4 15 2 0 6 -7 10 -15z m-1824
-30 c0 -8 -7 -15 -15 -15 -26 0 -18 20 13 29 1 1 2 -6 2 -14z m2050 5 c0 -5
-2 -10 -4 -10 -3 0 -8 5 -11 10 -3 6 -1 10 4 10 6 0 11 -4 11 -10z m-1407 -33
c-13 -26 -33 -86 -33 -98 0 -5 9 0 20 11 11 11 20 29 20 40 0 11 3 20 8 20 4
0 13 14 20 30 8 17 18 30 24 30 11 0 9 -12 -16 -103 -9 -32 -16 -67 -16 -78 0
-10 -4 -28 -10 -39 -5 -11 -14 -29 -20 -40 -5 -11 -10 -31 -10 -44 0 -14 -4
-28 -10 -31 -5 -3 -10 -20 -10 -36 0 -17 -6 -32 -15 -35 -8 -4 -15 -14 -15
-23 -1 -14 -2 -14 -8 -1 -11 20 -3 132 9 124 10 -6 12 9 2 19 -8 9 -32 -24
-33 -45 0 -10 -5 -18 -11 -18 -7 0 -9 16 -5 48 8 71 17 125 23 142 3 8 7 21 9
27 5 25 29 73 36 73 5 0 8 5 8 12 0 14 31 50 38 43 3 -3 0 -15 -5 -28z m827 7
c0 -8 -4 -12 -10 -9 -5 3 -10 13 -10 21 0 8 5 12 10 9 6 -3 10 -13 10 -21z
m115 16 c3 -5 1 -10 -4 -10 -6 0 -11 5 -11 10 0 6 2 10 4 10 3 0 8 -4 11 -10z
m-1115 -32 c0 -26 -16 -77 -46 -153 -6 -15 -9 -8 -12 29 -2 27 2 54 7 59 6 6
11 19 11 29 0 10 5 18 10 18 6 0 10 9 10 20 0 11 5 20 10 20 6 0 10 -10 10
-22z m1560 -65 c0 -7 5 -13 10 -13 6 0 10 -18 10 -39 0 -22 5 -41 11 -43 8 -3
7 -14 -5 -36 -16 -30 -15 -33 4 -52 11 -11 19 -28 19 -37 -1 -16 -2 -16 -6 -2
-2 10 -12 19 -21 21 -11 3 -23 23 -31 49 -7 24 -19 55 -26 69 -16 31 -29 116
-20 131 8 13 55 -28 55 -48z m-150 -43 c0 -5 -2 -10 -4 -10 -3 0 -8 5 -11 10
-3 6 -1 10 4 10 6 0 11 -4 11 -10z m227 -27 c-3 -10 -5 -4 -5 12 0 17 2 24 5
18 2 -7 2 -21 0 -30z m-2026 -32 c-6 -11 -11 -33 -11 -50 0 -16 -4 -33 -10
-36 -5 -3 -10 -24 -10 -45 0 -21 -4 -42 -10 -45 -5 -3 -10 -31 -10 -61 0 -30
-4 -54 -10 -54 -5 0 -10 -19 -10 -42 0 -54 -18 -120 -31 -113 -12 8 -11 89 2
145 8 33 7 59 -2 99 -12 48 -11 55 5 66 10 8 16 22 14 32 -3 10 6 33 19 51 13
17 21 37 18 42 -3 6 -1 10 4 10 6 0 11 5 11 12 0 6 8 20 18 31 17 19 17 19 20
-1 2 -12 -2 -30 -7 -41z m804 -109 c-3 -64 -5 -118 -5 -121 0 -3 -7 4 -15 15
-9 11 -14 42 -15 77 0 31 -4 57 -10 57 -5 0 -10 13 -10 29 0 17 5 33 10 36 6
3 10 17 10 30 0 29 23 38 33 13 4 -11 5 -72 2 -136z m480 148 c3 -5 1 -10 -4
-10 -6 0 -11 5 -11 10 0 6 2 10 4 10 3 0 8 -4 11 -10z m-548 -42 c-3 -8 -6 -5
-6 6 -1 11 2 17 5 13 3 -3 4 -12 1 -19z m-347 2 c0 -5 -4 -10 -10 -10 -5 0
-10 5 -10 10 0 6 5 10 10 10 6 0 10 -4 10 -10z m-63 -47 c-3 -10 -5 -4 -5 12
0 17 2 24 5 18 2 -7 2 -21 0 -30z m1732 -14 c12 -34 16 -207 4 -196 -3 4 -10
40 -14 79 -5 40 -11 90 -15 111 -8 46 10 50 25 6z m-2192 -41 c-9 -84 -18
-128 -28 -128 -5 0 -9 20 -9 45 0 25 5 45 10 45 6 0 10 20 10 45 0 26 5 45 11
45 7 0 9 -18 6 -52z m2003 22 c0 -5 -4 -10 -10 -10 -5 0 -10 5 -10 10 0 6 5
10 10 10 6 0 10 -4 10 -10z m263 -37 c6 -16 15 -30 18 -33 11 -8 32 -118 37
-190 4 -71 -24 -176 -60 -221 l-19 -24 6 55 c9 81 11 300 3 286 -4 -6 -8 -30
-8 -53 0 -24 -4 -43 -8 -43 -5 0 -9 44 -11 98 -3 140 13 189 42 125z m-305
-40 c2 0 -1 -10 -7 -22 -7 -13 -8 -22 -1 -26 5 -3 10 2 10 11 0 32 14 4 21
-44 16 -92 22 -117 36 -138 15 -23 12 -86 -5 -92 -6 -2 -12 7 -14 20 -5 24 -4
25 -25 -29 -6 -17 -6 -17 -10 0 -3 9 -14 17 -25 17 -17 0 -19 -4 -13 -27 3
-16 9 -46 11 -68 5 -45 4 -44 -43 61 -25 56 -53 88 -53 60 0 -9 5 -16 10 -16
6 0 10 -13 10 -30 0 -45 -12 -36 -44 32 -18 40 -31 57 -36 48 -11 -18 -23 25
-16 56 4 13 0 40 -8 59 -16 38 -16 38 30 35 21 -1 33 4 37 14 4 9 18 21 32 26
16 6 23 14 19 25 -4 10 0 15 10 15 9 0 16 8 16 18 0 29 11 34 34 15 12 -10 22
-19 24 -20z m-758 -73 c0 -93 -9 -117 -29 -74 -14 32 -14 102 0 142 18 52 29
26 29 -68z m53 54 c4 -21 12 -58 17 -82 12 -53 13 -232 1 -232 -5 0 -11 22
-15 49 -4 28 -13 65 -20 83 -14 31 -22 122 -18 196 3 46 25 37 35 -14z m-1093
-2 c0 -15 -2 -15 -10 -2 -13 20 -13 33 0 25 6 -3 10 -14 10 -23z m1926 -127
c8 -29 9 -28 12 15 2 25 8 50 14 55 8 7 9 5 5 -7 -3 -10 0 -21 7 -25 22 -13
47 -223 27 -223 -6 0 -11 -7 -11 -15 0 -16 -15 -20 -24 -7 -3 5 -6 31 -7 60
-2 46 -4 50 -21 41 -16 -8 -21 -5 -33 25 -15 36 -21 147 -8 159 7 8 27 -31 39
-78z m-758 2 c12 -54 17 -245 6 -234 -21 21 -46 287 -27 287 5 0 14 -24 21
-53z m296 -24 c13 -88 19 -113 27 -119 5 -3 9 -31 9 -62 l0 -57 -21 45 c-11
25 -25 53 -30 62 -12 23 -12 181 0 174 5 -3 11 -23 15 -43z m82 26 c5 1 10
-10 12 -24 2 -14 8 -25 13 -25 5 0 9 -31 9 -70 0 -40 -4 -70 -10 -70 -5 0 -10
12 -10 28 0 15 -5 34 -10 42 -8 12 -10 10 -11 -10 l-1 -25 -8 25 c-4 14 -8 19
-9 13 -1 -7 -5 -13 -11 -13 -14 0 -12 106 2 130 8 12 15 15 19 9 3 -6 10 -10
15 -10z m-1775 -119 c-9 -23 -10 -21 -10 17 -1 56 13 91 17 43 2 -20 -1 -47
-7 -60z m2272 -12 c-3 -32 -10 -55 -14 -52 -11 6 -12 108 -2 117 15 16 22 -11
16 -65z m-772 -1 c-8 -8 -11 -5 -11 9 0 27 14 41 18 19 2 -9 -1 -22 -7 -28z
m51 -225 c4 -25 2 -29 -9 -21 -7 7 -13 19 -13 28 0 9 -5 22 -11 28 -7 7 -9 20
-5 29 6 16 9 15 20 -8 7 -14 15 -39 18 -56z m438 -247 c0 -8 -2 -15 -4 -15 -2
0 -6 7 -10 15 -3 8 -1 15 4 15 6 0 10 -7 10 -15z"/>
<path d="M2980 7576 c0 -14 5 -28 10 -31 6 -4 10 7 10 24 0 17 -4 31 -10 31
-5 0 -10 -11 -10 -24z"/>
<path d="M3014 7505 c-6 -19 -7 -40 -3 -47 6 -9 9 -6 9 10 0 12 5 22 10 22 12
0 14 37 2 44 -4 2 -12 -11 -18 -29z"/>
<path d="M2871 7414 c0 -11 3 -14 6 -6 3 7 2 16 -1 19 -3 4 -6 -2 -5 -13z"/>
<path d="M3287 7403 c-4 -3 -7 -11 -7 -17 0 -6 5 -5 12 2 6 6 9 14 7 17 -3 3
-9 2 -12 -2z"/>
<path d="M4880 7826 c0 -8 5 -18 10 -21 6 -3 10 1 10 9 0 8 -4 18 -10 21 -5 3
-10 -1 -10 -9z"/>
<path d="M2388 6649 c-4 -9 0 -36 7 -60 15 -48 18 -28 7 36 -5 27 -10 35 -14
24z"/>
<path d="M3875 6343 c-111 -7 -154 -15 -176 -34 -12 -10 -18 -19 -14 -19 4 0
1 -8 -8 -17 -9 -11 -17 -44 -20 -83 -3 -36 -8 -78 -12 -95 -13 -46 -72 -95
-118 -95 -13 0 -27 -4 -33 -9 -12 -11 -79 -20 -221 -27 -62 -3 -113 -10 -113
-15 0 -12 235 -12 274 0 84 25 137 33 150 22 11 -9 21 -4 45 26 17 21 31 43
31 50 0 7 5 13 10 13 6 0 10 6 10 14 0 17 63 86 79 86 6 0 23 7 37 16 33 22
15 44 -37 44 -31 0 -39 4 -39 18 0 19 37 42 69 42 30 0 80 -30 86 -51 4 -11 1
-34 -6 -50 -9 -24 -9 -35 1 -57 7 -15 18 -38 24 -52 13 -29 21 -40 58 -81 29
-30 43 -36 53 -19 3 6 28 10 55 10 27 0 52 -4 55 -10 8 -13 225 -13 245 0 10
7 -19 10 -92 10 -60 0 -110 4 -113 10 -3 6 -26 10 -51 10 -24 0 -52 4 -62 9
-9 5 -31 15 -47 22 -29 11 -55 47 -55 76 0 7 -4 22 -10 33 -5 11 -15 29 -20
40 -19 37 -16 127 5 150 10 11 16 19 14 18 -2 -1 -26 -3 -54 -5z"/>
<path d="M4195 6209 c-4 -6 -5 -13 -1 -16 8 -9 76 7 76 17 0 14 -67 13 -75 -1z"/>
<path d="M2740 5651 c0 -6 5 -13 10 -16 6 -3 10 1 10 9 0 9 -4 16 -10 16 -5 0
-10 -4 -10 -9z"/>
<path d="M3600 5370 c0 -5 -7 -10 -15 -10 -17 0 -95 -74 -95 -90 0 -5 12 -10
26 -10 14 0 23 4 20 8 -14 23 376 37 480 18 35 -6 42 -4 48 11 5 11 1 22 -11
30 -10 7 -23 17 -30 23 -7 5 -19 10 -27 10 -8 0 -18 5 -21 10 -5 8 -12 7 -22
-2 -19 -15 -301 -12 -317 3 -13 12 -36 11 -36 -1z"/>
<path d="M3745 5161 c-17 -7 -17 -8 8 -15 33 -8 56 2 36 15 -16 10 -18 10 -44
0z"/>
<path d="M3992 4648 c-16 -16 -15 -28 2 -28 16 0 29 27 17 34 -4 3 -13 0 -19
-6z"/>
<path d="M3560 4636 c0 -9 30 -14 35 -6 4 6 -3 10 -14 10 -12 0 -21 -2 -21 -4z"/>
<path d="M3865 4629 c-22 -4 -70 -8 -107 -8 -37 -1 -70 -5 -73 -11 -4 -6 23
-10 74 -10 44 0 83 5 86 10 3 6 31 10 61 10 30 0 54 5 54 10 0 12 -38 11 -95
-1z"/>
<path d="M4160 4530 c0 -5 -6 -10 -12 -10 -7 0 -22 -7 -33 -15 -18 -14 -18
-16 -2 -32 14 -15 21 -15 37 -5 17 10 20 9 26 -12 11 -44 -9 -269 -26 -291 -4
-5 -10 -22 -13 -36 -8 -34 -77 -109 -100 -109 -9 0 -17 -4 -17 -10 0 -5 -18
-10 -40 -10 -22 0 -40 -4 -40 -10 0 -14 -124 -12 -157 2 -15 7 -37 21 -47 30
-11 10 -26 18 -34 18 -18 0 -103 87 -129 130 -9 16 -21 30 -25 30 -4 0 -8 8
-8 18 0 10 -9 24 -20 32 -11 8 -20 22 -20 32 0 10 -4 18 -10 18 -5 0 -10 9
-10 20 0 11 -3 20 -8 20 -7 0 -25 37 -36 76 -3 11 0 29 8 39 10 14 11 22 2 30
-14 14 -133 18 -141 5 -3 -6 -27 -10 -52 -10 -36 0 -46 -4 -50 -20 -3 -11 -9
-20 -14 -20 -15 0 -48 -33 -43 -42 3 -5 0 -15 -6 -23 -10 -12 -10 -15 2 -15 8
0 18 3 22 8 19 18 56 -3 56 -32 0 -9 3 -16 8 -16 4 0 13 -15 20 -32 7 -18 18
-41 23 -50 5 -10 9 -78 10 -153 0 -74 5 -137 10 -140 12 -8 12 -105 -1 -105
-5 0 -10 -10 -10 -23 0 -13 -13 -33 -30 -47 -17 -14 -30 -34 -30 -47 0 -13 -4
-23 -10 -23 -5 0 -10 -11 -10 -24 0 -14 -4 -28 -10 -31 -5 -3 -10 -19 -10 -35
0 -16 -4 -32 -10 -35 -6 -4 -10 -60 -10 -136 0 -76 -5 -139 -11 -151 -8 -15
-8 -22 0 -28 13 -7 11 -31 -2 -41 -5 -3 9 -20 30 -38 78 -66 158 -137 198
-176 36 -36 47 -41 93 -44 32 -1 52 2 52 8 0 13 42 15 56 2 5 -5 27 -11 49
-14 97 -11 117 -25 84 -56 -17 -16 -36 -21 -76 -21 -56 0 -61 -3 -40 -24 20
-20 75 -26 157 -15 115 14 169 14 182 1 9 -9 9 -15 0 -24 -18 -18 -15 -27 8
-21 25 7 82 -16 77 -30 -4 -14 -34 -28 -122 -58 -50 -16 -342 -16 -358 0 -6 6
-32 11 -58 11 -26 0 -51 5 -54 10 -3 6 -21 10 -40 10 -19 0 -37 5 -40 10 -3 6
-17 10 -31 10 -13 0 -24 5 -24 10 0 6 -13 10 -29 10 -16 0 -58 18 -95 40 -36
22 -72 40 -81 40 -8 0 -15 4 -15 8 0 4 -13 13 -30 19 -16 6 -30 8 -30 3 0 -4
7 -11 16 -14 13 -5 15 -16 11 -59 -10 -96 -19 -128 -56 -205 -58 -120 -67
-145 -53 -150 7 -2 10 -8 6 -13 -3 -5 1 -9 8 -9 7 0 19 9 26 20 10 16 10 20 0
20 -9 0 -8 3 2 10 9 6 17 5 22 -3 5 -8 8 -6 8 6 0 9 5 17 10 17 6 0 10 7 10
15 0 12 19 14 123 11 134 -4 217 -20 217 -42 0 -8 7 -14 15 -14 8 0 15 -4 15
-10 0 -5 11 -10 25 -10 14 0 25 -4 25 -10 0 -5 9 -10 20 -10 11 0 20 -4 20
-10 0 -5 9 -10 20 -10 11 0 20 -3 20 -7 0 -9 49 -33 67 -33 7 0 13 -3 13 -8 0
-4 18 -18 40 -32 22 -14 40 -27 40 -31 0 -14 157 -49 224 -49 52 0 136 32 136
52 0 4 6 8 13 8 7 0 30 16 52 35 22 19 43 35 47 35 4 0 13 6 20 14 8 7 43 28
78 47 36 19 67 36 70 39 14 14 85 31 130 32 35 0 50 4 50 13 0 7 3 20 6 29 4
11 1 16 -10 16 -9 0 -16 5 -16 10 0 6 -6 10 -14 10 -21 0 -26 23 -26 116 0 80
1 84 23 84 22 1 22 1 -3 15 -24 13 -24 14 -5 20 11 4 28 11 37 16 10 5 31 9
47 9 17 0 33 5 36 10 3 6 21 10 40 10 43 0 65 9 65 26 0 9 11 14 28 14 34 0
52 16 52 47 0 13 4 23 8 23 5 0 17 6 27 14 18 13 18 14 -8 9 -15 -3 -30 -9
-33 -14 -3 -5 -14 -9 -25 -9 -11 0 -41 -12 -67 -26 -79 -44 -285 -55 -442 -24
-30 6 -84 13 -120 16 -36 3 -69 10 -74 15 -6 5 -18 9 -28 9 -17 0 -47 12 -148
58 -19 9 -43 16 -52 16 -10 -1 -18 4 -18 10 0 6 -20 23 -43 38 -24 16 -55 42
-68 60 -13 18 -39 49 -56 69 -18 20 -33 39 -33 43 0 12 -35 46 -48 46 -7 0
-11 4 -8 9 3 4 -6 21 -19 37 -14 16 -25 35 -25 42 0 6 -4 12 -10 12 -5 0 -10
9 -10 19 0 11 -4 21 -8 23 -16 6 -68 125 -82 183 -7 33 -17 64 -22 70 -4 5 -8
35 -8 67 0 53 2 58 23 59 27 2 111 -2 114 -5 2 -2 5 -27 8 -57 8 -82 61 -216
83 -212 7 2 12 -7 12 -20 0 -29 18 -47 48 -47 13 0 20 -4 17 -10 -3 -5 0 -10
9 -10 8 0 16 6 18 12 3 7 18 -7 34 -31 16 -24 39 -54 52 -68 12 -13 22 -28 22
-32 0 -5 14 -24 31 -42 16 -18 44 -52 61 -76 22 -30 39 -43 55 -43 31 0 53
-22 53 -53 0 -30 11 -39 80 -65 39 -14 69 -18 105 -15 49 5 51 7 74 55 17 36
33 54 56 64 20 8 37 24 43 41 6 15 31 50 56 76 25 27 46 54 46 60 0 10 61 72
174 177 4 4 16 17 27 29 24 26 64 37 92 23 38 -18 75 -23 83 -10 4 6 2 14 -5
16 -17 6 -51 43 -61 67 -8 18 -9 17 -9 -6 -1 -33 -28 -45 -51 -24 -25 22 -45
19 -83 -15 -19 -16 -37 -30 -41 -30 -13 0 -5 28 14 45 11 10 20 28 20 40 0 11
5 26 12 33 17 17 3 25 -21 12 -12 -6 -26 -8 -31 -5 -6 3 -10 1 -10 -4 0 -6 -8
-11 -18 -11 -10 0 -22 -4 -28 -9 -5 -5 -30 -13 -56 -19 l-47 -9 1 379 c0 415
-1 421 -60 433 -15 4 -35 10 -44 16 -10 5 -30 9 -46 9 -16 0 -34 8 -42 20 -15
21 -50 28 -50 10z m-306 -717 c11 -7 -33 -32 -58 -33 -12 0 -16 5 -12 15 3 8
1 15 -4 15 -6 0 -10 5 -10 11 0 11 63 5 84 -8z m146 -48 c0 -16 -17 -19 -44
-9 -26 10 -18 24 14 24 20 0 30 -5 30 -15z m0 -67 c0 -19 -2 -20 -10 -8 -13
19 -13 30 0 30 6 0 10 -10 10 -22z m55 -8 c3 -6 -4 -10 -17 -10 -18 0 -20 2
-8 10 19 12 18 12 25 0z m505 -35 c0 -24 -5 -35 -15 -35 -15 0 -22 50 -8 63
15 15 23 5 23 -28z m-301 -74 c28 -21 21 -47 -9 -31 -10 5 -36 10 -57 11 -35
0 -36 1 -15 11 12 6 22 15 22 20 0 14 34 8 59 -11z m139 -48 c4 -49 2 -50 -41
-25 -18 9 -34 18 -36 19 -1 1 1 8 5 15 5 7 9 16 10 21 1 4 2 10 3 13 0 3 13 4
28 2 24 -3 28 -8 31 -45z m122 40 c-8 -3 -30 -12 -48 -21 -36 -16 -52 -11 -32
13 8 9 28 15 54 14 22 0 34 -3 26 -6z m-318 -115 c3 -7 2 -23 0 -36 -7 -35
-36 -24 -40 16 -3 26 0 32 17 32 10 0 21 -5 23 -12z m163 -568 c-3 -5 -10 -10
-16 -10 -5 0 -9 5 -9 10 0 6 7 10 16 10 8 0 12 -4 9 -10z m175 0 c0 -5 -4 -10
-10 -10 -5 0 -10 5 -10 10 0 6 5 10 10 10 6 0 10 -4 10 -10z"/>
<path d="M3080 4330 c0 -5 5 -10 10 -10 6 0 10 5 10 10 0 6 -4 10 -10 10 -5 0
-10 -4 -10 -10z"/>
<path d="M4630 3482 c0 -10 38 -42 51 -42 5 0 7 -5 4 -10 -15 -24 59 -72 95
-63 20 5 27 38 12 58 -21 31 -162 80 -162 57z"/>
<path d="M5170 3396 c0 -8 -10 -27 -23 -43 -12 -15 -29 -41 -37 -58 -8 -16
-19 -33 -25 -37 -5 -4 -6 -10 -3 -14 9 -8 29 12 47 49 8 15 18 27 23 27 4 0 8
9 8 21 0 11 5 17 10 14 6 -3 10 3 10 15 0 12 5 18 10 15 6 -3 10 1 10 9 0 9
-7 16 -15 16 -8 0 -15 -6 -15 -14z"/>
<path d="M4499 3388 c-2 -25 3 -54 14 -80 10 -24 18 -28 55 -28 41 0 42 1 35
28 -7 28 -69 91 -90 92 -7 0 -14 -6 -14 -12z"/>
<path d="M2791 3233 c0 -12 -4 -30 -7 -40 -5 -14 -4 -15 5 -7 7 6 11 24 8 40
-3 21 -4 23 -6 7z"/>
<path d="M5054 3226 c-66 -67 -153 -135 -184 -143 -24 -6 -50 -25 -50 -37 0
-14 61 -5 81 12 52 43 67 56 104 92 53 51 76 78 67 84 -4 2 -12 -1 -18 -8z"/>
<path d="M3880 3190 c0 -5 5 -10 10 -10 6 0 10 5 10 10 0 6 -4 10 -10 10 -5 0
-10 -4 -10 -10z"/>
<path d="M2780 3151 c0 -6 5 -13 10 -16 6 -3 10 1 10 9 0 9 -4 16 -10 16 -5 0
-10 -4 -10 -9z"/>
<path d="M4680 2850 c0 -5 9 -10 21 -10 11 0 17 5 14 10 -3 6 -13 10 -21 10
-8 0 -14 -4 -14 -10z"/>
<path d="M1777 2773 c-24 -6 -11 -23 18 -23 18 0 23 4 19 15 -6 16 -7 16 -37
8z"/>
<path d="M1686 2748 c-13 -7 -137 -12 -370 -14 -193 -1 -355 -3 -361 -3 -5 -1
-48 2 -95 7 -47 4 -138 6 -203 4 l-119 -3 5 -57 c10 -121 40 -198 96 -247 19
-16 42 -38 50 -49 68 -81 124 -128 189 -157 17 -7 32 -17 32 -21 0 -5 13 -8
28 -8 15 0 34 -6 40 -12 10 -10 15 -10 22 1 12 21 40 -9 40 -43 0 -26 0 -26
-85 -26 -50 0 -85 4 -85 10 0 6 -9 10 -19 10 -11 0 -23 5 -26 10 -3 6 -15 10
-26 10 -10 0 -19 5 -19 10 0 6 -7 10 -15 10 -17 0 -85 63 -85 78 0 5 -12 15
-27 21 -37 15 -72 91 -43 91 6 0 10 9 10 21 0 11 -5 17 -10 14 -6 -4 -10 5
-10 19 0 14 -4 26 -10 26 -5 0 -10 -11 -10 -25 0 -14 -4 -25 -10 -25 -13 0
-30 34 -30 59 0 12 -4 21 -9 21 -5 0 -11 14 -14 30 -4 18 -13 30 -22 30 -8 0
-15 9 -15 19 0 11 -5 23 -10 26 -6 3 -10 22 -10 41 0 19 -4 34 -10 34 -5 0
-10 9 -10 20 0 13 -7 20 -19 20 -11 0 -23 5 -26 10 -3 6 -16 10 -28 10 -27 0
-49 -31 -36 -51 5 -8 9 -44 9 -81 0 -56 5 -76 32 -125 17 -32 35 -59 40 -61 4
-2 8 -11 8 -21 0 -9 9 -23 20 -31 11 -8 20 -22 20 -32 0 -15 -9 -18 -48 -18
-61 0 -108 -23 -116 -55 -5 -18 -13 -25 -30 -25 -14 0 -26 -5 -28 -11 -3 -9
-9 -9 -25 0 -34 18 -88 14 -108 -9 -13 -14 -31 -20 -62 -20 l-43 0 0 -210 c0
-203 1 -210 20 -210 11 0 20 -4 20 -10 0 -5 5 -10 12 -10 19 0 108 -43 108
-52 0 -13 28 -9 32 4 5 15 112 -6 176 -35 24 -10 54 -16 65 -14 12 3 40 -1 62
-9 58 -23 143 -43 149 -36 3 3 6 0 6 -6 0 -7 16 -12 38 -12 21 0 42 -4 48 -9
5 -5 34 -12 64 -15 126 -13 160 -18 160 -26 0 -8 39 -16 120 -26 25 -3 49 -10
54 -15 6 -5 31 -9 57 -9 26 0 51 -4 54 -10 3 -5 26 -10 50 -10 24 0 47 -4 50
-10 3 -5 21 -10 40 -10 18 0 35 -5 37 -11 2 -5 22 -13 46 -16 23 -3 42 -9 42
-12 0 -4 42 -7 93 -8 152 -2 337 -26 337 -44 0 -5 9 -9 20 -9 11 0 20 -6 20
-12 0 -9 3 -9 8 -2 7 9 41 10 237 1 39 -1 84 -9 102 -16 28 -11 32 -18 37 -64
3 -29 8 -76 12 -105 4 -34 2 -58 -6 -67 -17 -20 -3 -122 19 -135 15 -8 14 -10
-2 -27 -15 -16 -34 -18 -142 -16 -70 0 -125 -3 -125 -8 0 -5 -54 -9 -120 -9
-73 0 -120 4 -120 10 0 6 5 10 10 10 6 0 10 7 10 15 0 8 -4 15 -10 15 -5 0
-10 -7 -10 -15 0 -11 -12 -15 -45 -15 -44 0 -60 12 -30 24 28 10 17 36 -15 36
-16 0 -30 5 -30 10 0 6 -11 10 -24 10 -14 0 -30 10 -40 25 -15 23 -17 24 -61
10 -54 -16 -50 -15 -74 -15 -11 0 -22 -10 -26 -22 -6 -20 -8 -21 -12 -5 -4 14
-13 17 -41 15 -34 -3 -37 -6 -40 -35 -2 -18 -7 -33 -13 -33 -5 0 -9 -9 -9 -21
0 -18 5 -20 38 -16 21 2 36 9 34 15 -1 7 3 12 9 12 7 0 18 8 25 17 13 17 14
17 8 0 -5 -13 -2 -16 12 -10 14 5 16 3 9 -13 -4 -10 -10 -29 -12 -41 -8 -35
-27 -45 -58 -31 -21 9 -28 9 -34 -1 -7 -10 -13 -11 -31 -1 -16 9 -25 9 -33 1
-16 -16 -48 -13 -67 6 -13 14 -14 24 -6 44 7 21 6 30 -7 44 -9 9 -17 20 -17
24 0 4 -11 21 -25 37 -14 16 -25 32 -25 36 0 9 -207 218 -217 218 -4 0 -19 9
-33 20 -14 11 -37 20 -51 20 -14 0 -34 8 -45 18 -37 32 -63 42 -109 42 -37 0
-45 -3 -45 -18 0 -10 -5 -23 -12 -30 -9 -9 -9 -15 0 -24 15 -15 16 -65 0 -70
-7 -3 -5 -11 7 -25 19 -22 65 -127 65 -148 0 -25 26 -65 43 -65 10 0 17 -8 17
-20 0 -12 9 -30 20 -42 18 -20 20 -36 20 -192 0 -139 3 -173 15 -187 14 -15
14 -18 -1 -33 -9 -9 -14 -25 -11 -36 6 -25 -6 -34 -30 -22 -60 31 -133 48
-133 32 0 -6 -5 -10 -11 -10 -6 0 -9 10 -7 22 2 15 16 26 46 37 51 18 54 31 7
31 l-35 0 0 120 c0 73 -4 120 -10 120 -5 0 -10 11 -10 24 0 14 -4 28 -10 31
-5 3 -10 19 -10 35 0 52 -45 148 -75 162 -22 10 -24 17 -23 65 1 29 -4 59 -10
65 -7 7 -12 22 -12 35 0 14 -11 29 -27 40 -16 10 -31 22 -35 28 -4 5 -5 -8 -1
-30 6 -43 28 -75 50 -75 7 0 13 -7 13 -15 0 -8 -4 -15 -10 -15 -13 0 -13 -57
0 -65 6 -3 10 -16 10 -29 0 -25 21 -76 33 -76 4 0 7 -11 7 -24 0 -14 5 -28 10
-31 6 -3 10 -24 10 -45 0 -21 5 -42 10 -45 6 -3 10 -17 10 -30 0 -13 5 -27 10
-30 7 -4 10 -53 8 -128 -2 -146 -6 -154 -85 -149 -35 3 -53 0 -53 -8 0 -6 -4
-9 -10 -5 -5 3 -7 11 -4 18 9 25 -30 37 -72 22 -22 -8 -45 -14 -52 -15 -13 0
-102 -83 -102 -95 0 -10 27 -35 39 -35 6 0 11 -4 11 -10 0 -5 11 -10 25 -10
14 0 25 -4 25 -10 0 -5 9 -10 20 -10 26 0 25 -3 -10 -38 -24 -25 -29 -38 -28
-75 1 -47 18 -93 18 -48 0 15 4 21 14 18 7 -3 18 -1 24 5 11 11 32 3 32 -13 0
-5 -9 -9 -21 -9 -25 0 -21 -23 5 -28 11 -2 19 4 23 17 8 30 18 26 21 -7 1 -17
-6 -37 -18 -49 l-19 -22 27 -9 27 -9 -23 -12 c-12 -6 -22 -18 -22 -25 0 -10
10 -11 52 -3 39 8 53 7 56 -1 5 -15 92 -16 92 -2 0 13 47 13 55 0 8 -13 225
-13 225 0 0 6 34 10 81 10 44 0 78 4 75 9 -3 4 23 9 57 10 69 2 175 17 209 30
13 4 31 7 41 6 9 -2 17 3 17 11 0 9 5 12 10 9 6 -4 16 -2 23 3 19 15 115 35
134 28 8 -4 28 1 42 11 30 19 66 19 171 -3 41 -9 82 -16 90 -17 8 0 20 -3 25
-8 6 -4 26 -7 44 -7 18 1 36 -5 41 -12 6 -10 8 -10 12 1 4 11 14 11 61 -1 32
-7 65 -13 75 -13 9 0 29 -8 44 -18 14 -11 31 -19 38 -19 6 0 8 -5 5 -11 -4 -6
-14 -8 -22 -5 -8 3 -26 3 -40 0 -61 -16 15 -24 225 -24 196 0 225 2 240 17 16
16 17 16 20 0 4 -18 32 -24 32 -6 0 5 -4 7 -10 4 -11 -7 -14 13 -11 59 2 26 1
28 -12 17 -10 -7 -28 -10 -49 -6 -18 3 -112 7 -209 9 l-176 3 -55 42 c-30 22
-60 41 -67 41 -6 0 -20 4 -31 10 -11 5 -29 14 -40 20 -11 5 -79 10 -152 10
-103 0 -129 3 -120 12 15 15 16 48 2 48 -5 0 -10 -9 -10 -20 0 -17 -7 -20 -39
-20 -26 0 -41 5 -45 16 -9 23 -8 24 19 24 18 0 25 5 25 20 0 13 -7 20 -20 20
-11 0 -20 5 -20 10 0 6 -7 10 -15 10 -8 0 -15 4 -15 10 0 5 -39 11 -87 12
l-88 3 3 35 c2 19 8 39 13 44 5 6 9 27 9 48 0 21 5 38 10 38 6 0 10 7 10 15 0
8 5 15 10 15 6 0 10 6 10 13 0 6 14 26 30 44 17 18 30 35 30 38 0 4 14 20 31
36 l31 29 207 7 c285 10 303 9 395 -30 21 -10 65 -17 97 -17 l59 0 0 -36 c0
-28 -3 -35 -15 -30 -8 3 -15 1 -15 -4 0 -6 -7 -10 -15 -10 -8 0 -15 -4 -15 -9
0 -13 337 -14 345 -1 4 6 63 10 153 10 l147 0 35 -30 c20 -17 46 -30 63 -30
15 0 27 -4 27 -10 0 -5 7 -10 15 -10 8 0 15 -4 15 -10 0 -5 11 -10 24 -10 14
0 28 -4 31 -10 9 -15 167 -12 188 4 9 7 17 16 17 19 0 4 -33 6 -73 5 -68 -2
-137 16 -137 34 0 5 -7 8 -15 8 -8 0 -15 5 -15 10 0 6 5 10 10 10 6 0 10 9 10
20 0 19 7 20 113 20 120 0 156 10 125 34 -10 7 -18 16 -18 19 0 3 -14 30 -31
59 -58 97 -69 119 -69 133 0 8 -3 15 -8 15 -4 0 -12 10 -17 21 -13 29 -29 29
-33 2 -3 -22 -22 -33 -22 -13 0 6 -9 10 -20 10 -11 0 -20 -5 -20 -11 0 -7 -7
-8 -17 -4 -10 4 -44 9 -77 10 -32 2 -63 8 -69 14 -13 13 -156 14 -209 2 -21
-5 -36 -5 -33 -1 3 5 -7 10 -22 12 l-28 3 0 85 c-1 47 3 102 7 122 4 21 4 67
-1 104 -12 81 -2 104 46 104 18 0 33 4 33 9 0 4 24 8 53 7 28 0 94 0 145 2
l92 2 0 30 c0 17 -4 30 -10 30 -5 0 -10 13 -10 29 0 17 -4 33 -10 36 -5 3 -10
17 -10 31 0 13 -4 24 -10 24 -5 0 -10 24 -11 53 0 28 -5 61 -10 72 -9 19 -9
19 -5 -2 5 -30 -17 -48 -34 -28 -18 22 -35 19 -54 -10 -18 -28 -36 -33 -36
-10 0 8 -14 22 -30 30 -17 9 -59 43 -93 76 l-62 60 2 146 c2 80 7 151 12 157
5 6 15 37 22 69 8 32 22 67 31 77 22 24 31 61 18 80 -8 12 -12 12 -18 2 -7
-10 -15 -10 -36 -2 -15 5 -45 10 -66 10 -39 0 -39 0 -38 37 1 20 -4 39 -10 41
-7 2 -12 10 -12 17 0 15 -22 25 -55 25 -16 0 -29 -11 -43 -34 -18 -30 -19 -40
-10 -76 10 -36 9 -44 -6 -52 -9 -5 -14 -13 -11 -18 3 -5 -3 -11 -13 -14 -10
-4 -25 -19 -33 -34 -8 -15 -20 -33 -26 -40 -7 -7 -13 -22 -13 -33 0 -10 -5
-19 -11 -19 -13 0 -59 -50 -59 -63 0 -11 -90 -97 -102 -97 -5 0 -18 -9 -30
-20 -12 -11 -34 -20 -50 -20 -15 0 -28 -4 -28 -10 0 -5 -9 -10 -20 -10 -18 0
-48 -10 -97 -32 -11 -6 -26 -8 -31 -4 -5 3 -15 -1 -22 -9 -7 -8 -25 -15 -41
-15 -15 0 -31 -4 -34 -10 -8 -13 -52 -13 -61 1 -6 10 -37 8 -96 -6 -22 -6 -28
-4 -28 10 0 13 -6 15 -30 10 -21 -5 -30 -3 -30 6 0 10 -3 10 -12 1 -13 -13
-48 -16 -48 -4 0 8 -38 26 -97 44 -24 7 -43 16 -43 20 0 5 -6 8 -13 8 -46 0
-167 88 -167 121 0 7 -18 30 -40 51 -22 22 -40 44 -40 50 0 5 -18 27 -41 49
-22 21 -38 43 -34 49 3 5 -1 24 -9 42 -19 44 -27 81 -33 153 -3 33 -10 63 -16
67 -23 14 4 21 45 12 41 -9 43 -11 48 -49 4 -34 29 -85 50 -105 3 -3 16 -26
29 -52 13 -27 28 -48 33 -48 4 0 8 -9 8 -20 0 -11 3 -20 8 -20 4 0 13 -12 19
-27 7 -16 27 -34 45 -42 18 -8 35 -17 38 -20 16 -18 56 -31 97 -31 58 0 104
-28 80 -48 -8 -7 -13 -22 -10 -32 5 -17 15 -20 67 -22 78 -2 108 1 121 12 6 5
18 2 29 -6 11 -8 25 -14 30 -14 6 0 4 5 -4 10 -12 8 -11 10 7 10 12 0 24 6 26
13 4 10 6 10 6 0 1 -9 19 -13 55 -13 30 0 57 -4 60 -9 9 -15 72 -22 99 -12 18
7 24 15 20 29 -6 23 38 42 97 42 28 0 46 8 70 30 18 17 36 30 41 30 5 0 9 5 9
10 0 6 -5 10 -11 10 -8 0 -7 6 2 17 10 11 10 14 2 9 -8 -4 -13 -1 -13 8 0 8 9
20 20 26 11 6 18 16 14 22 -4 5 -3 13 2 17 13 9 34 48 34 63 0 6 7 20 17 30
15 17 17 17 35 2 10 -10 18 -12 18 -6 0 6 9 14 20 17 11 3 20 13 20 21 0 9 11
30 24 47 14 18 23 41 21 52 -2 11 -4 23 -4 28 -1 4 -10 7 -20 7 -11 0 -21 6
-24 13 -3 9 -55 12 -225 10 -122 -1 -222 0 -222 3 0 9 22 49 30 54 12 8 50 88
50 104 0 8 6 16 13 19 9 3 9 7 0 17 -9 10 -16 6 -35 -16 -12 -15 -31 -36 -40
-46 -10 -10 -18 -22 -18 -28 0 -5 -4 -10 -10 -10 -5 0 -10 -7 -10 -16 0 -8 -4
-12 -10 -9 -5 3 -10 -1 -10 -10 0 -9 -4 -13 -10 -10 -5 3 -10 -2 -10 -12 0
-23 -19 -43 -40 -43 -8 0 -24 -11 -34 -25 -10 -14 -26 -25 -35 -25 -10 0 -22
-5 -28 -11 -9 -9 -18 -8 -37 5 -14 9 -47 16 -73 17 -36 0 -43 3 -28 9 16 7 14
9 -15 10 -29 0 -32 2 -17 11 12 7 16 17 12 30 -4 11 -2 19 4 19 6 0 11 13 11
29 0 16 10 39 25 55 14 15 25 37 25 48 0 12 10 32 22 45 l21 23 -24 0 c-13 0
-33 -6 -43 -12z m-266 -199 c0 -5 -9 -9 -20 -9 -11 0 -20 6 -20 14 0 9 7 12
20 9 11 -3 20 -9 20 -14z m140 -19 c0 -6 -30 -10 -71 -10 -44 0 -68 4 -64 10
3 6 35 10 71 10 36 0 64 -4 64 -10z m848 -94 c-7 -8 -15 -12 -17 -11 -5 6 10
25 20 25 5 0 4 -6 -3 -14z m-820 -1492 c-9 -9 -21 -13 -27 -10 -20 13 -11 26
16 26 25 0 26 -1 11 -16z m-498 -204 c6 0 10 -4 10 -10 0 -5 9 -10 19 -10 11
0 23 -4 26 -10 3 -5 15 -10 26 -10 10 0 19 -5 19 -11 0 -7 9 -9 22 -6 12 4 27
2 34 -3 7 -7 23 -2 48 15 32 22 48 25 121 25 l85 0 0 -30 c0 -16 -4 -30 -10
-30 -5 0 -10 -11 -10 -25 0 -14 -4 -25 -10 -25 -5 0 -10 -7 -10 -15 0 -8 -4
-15 -10 -15 -5 0 -10 -6 -10 -14 0 -8 -6 -16 -12 -19 -9 -2 -12 -24 -11 -68 3
-76 -12 -124 -36 -113 -9 4 -56 11 -106 15 -49 4 -107 11 -127 14 -46 9 -89
-1 -85 -18 2 -13 -4 -14 -50 -3 l-32 8 6 57 c7 69 6 181 -2 284 l-7 77 52 -30
c28 -16 55 -30 60 -30z m-330 -310 c0 -5 -4 -10 -10 -10 -5 0 -10 5 -10 10 0
6 5 10 10 10 6 0 10 -4 10 -10z m-420 -14 c0 -3 -4 -8 -10 -11 -5 -3 -10 -1
-10 4 0 6 5 11 10 11 6 0 10 -2 10 -4z m382 -40 c4 -17 1 -23 -9 -19 -15 6
-15 6 -7 27 8 22 11 20 16 -8z m-37 -126 c3 -5 1 -10 -4 -10 -6 0 -11 5 -11
10 0 6 2 10 4 10 3 0 8 -4 11 -10z m-255 -19 c0 -5 -9 -11 -20 -14 -17 -4 -18
-2 -9 14 9 18 29 18 29 0z m505 -31 c0 -12 -18 -16 -87 -18 -49 -1 -88 -7 -88
-12 0 -17 -17 -11 -24 7 -13 32 22 44 114 41 68 -2 85 -6 85 -18z m905 -10 c0
-5 -4 -10 -10 -10 -5 0 -10 5 -10 10 0 6 5 10 10 10 6 0 10 -4 10 -10z m-822
-79 c5 -32 -9 -42 -45 -35 -27 5 -31 10 -28 33 2 14 4 26 4 27 1 1 16 1 34 0
26 -1 33 -6 35 -25z m42 19 c0 -5 -4 -10 -10 -10 -5 0 -10 5 -10 10 0 6 5 10
10 10 6 0 10 -4 10 -10z"/>
<path d="M1763 2733 c9 -2 23 -2 30 0 6 3 -1 5 -18 5 -16 0 -22 -2 -12 -5z"/>
<path d="M2905 2410 c-3 -5 -1 -10 4 -10 6 0 11 5 11 10 0 6 -2 10 -4 10 -3 0
-8 -4 -11 -10z"/>
<path d="M5044 2205 c-4 -10 -14 -15 -25 -12 -11 3 -19 1 -19 -4 0 -5 7 -9 15
-9 9 0 28 -11 43 -25 35 -32 42 -32 42 5 0 21 -4 28 -14 24 -9 -3 -13 1 -13
12 3 23 -21 30 -29 9z"/>
<path d="M5120 2040 c0 -36 2 -40 25 -40 14 0 28 -7 31 -15 4 -8 15 -15 25
-15 12 0 16 -5 13 -15 -4 -9 3 -19 20 -27 32 -14 31 -42 -2 -46 -16 -3 -27 6
-43 32 -12 20 -25 36 -31 36 -5 0 -6 5 -3 10 3 6 -4 10 -16 10 -19 0 -21 -4
-15 -37 11 -61 6 -119 -13 -168 -5 -11 -14 -38 -21 -60 -7 -22 -21 -47 -31
-56 -11 -9 -19 -24 -19 -33 0 -9 -4 -16 -10 -16 -5 0 -10 -9 -10 -20 0 -11 -4
-20 -10 -20 -5 0 -10 -13 -10 -30 0 -16 -4 -30 -10 -30 -5 0 -10 -8 -10 -18 0
-10 -5 -23 -12 -30 -9 -9 7 -12 74 -12 68 0 94 4 120 20 25 14 51 19 101 19
37 -1 69 -5 73 -10 7 -12 104 -12 104 0 0 9 147 21 167 14 15 -6 33 -58 33
-97 0 -17 9 -56 20 -86 11 -31 20 -80 20 -112 0 -45 3 -58 15 -58 8 0 15 -4
15 -10 0 -5 12 -10 26 -10 20 0 24 3 17 13 -5 6 -10 48 -10 92 0 44 2 65 4 48
2 -18 9 -33 14 -33 5 0 7 11 3 25 -4 15 -2 25 5 25 6 0 11 -9 11 -20 0 -11 5
-20 10 -20 18 0 10 40 -10 52 -22 14 -27 29 -7 25 6 -1 12 7 12 18 0 27 26 47
42 33 10 -8 13 -5 13 11 0 27 7 27 30 -1 24 -30 35 -18 20 24 -9 24 -9 41 -1
61 17 43 35 34 27 -15 -6 -43 -6 -43 8 -13 8 19 10 38 5 53 -12 33 -13 32 32
32 l42 0 -26 20 c-14 11 -32 20 -41 20 -24 0 -19 15 9 30 18 9 22 17 15 25
-16 20 -1 42 32 49 17 3 68 6 114 6 45 0 86 5 89 10 12 20 54 10 71 -16 15
-21 15 -27 4 -34 -8 -5 -18 -6 -22 -4 -4 3 -8 -1 -8 -10 0 -8 6 -17 13 -19 7
-4 3 -8 -10 -12 -28 -9 -30 -24 -4 -22 10 0 37 -5 60 -13 31 -10 47 -11 64 -2
12 6 33 12 47 14 20 2 26 10 28 33 2 17 8 34 13 39 5 6 9 34 9 63 0 48 -2 53
-25 59 -14 3 -30 15 -36 25 -5 11 -17 19 -25 19 -8 0 -12 -4 -9 -10 3 -5 -4
-11 -17 -12 -13 0 -34 -2 -48 -4 -14 -2 -94 -6 -177 -10 -151 -7 -153 -6 -153
14 0 25 52 82 75 82 10 0 15 10 15 30 0 28 -2 30 -39 30 -22 0 -43 5 -46 10
-3 6 -21 10 -40 10 -19 0 -37 5 -40 10 -3 6 -52 10 -111 10 -58 0 -114 5 -124
10 -35 19 -251 15 -304 -6 -14 -5 -17 -4 -12 4 4 7 19 12 33 12 24 0 25 1 11
18 -9 9 -14 22 -12 27 2 6 -17 17 -43 24 -35 11 -48 11 -51 3 -6 -18 -30 -14
-54 8 -15 14 -36 20 -65 20 l-43 0 0 -40z m400 -110 c0 -5 10 -10 23 -10 17 0
19 -2 7 -10 -8 -5 -19 -5 -25 0 -15 12 -85 15 -110 5 -17 -8 -18 -7 -5 8 17
18 110 24 110 7z m377 -11 c5 -5 8 -21 5 -35 -3 -19 -11 -24 -32 -24 -30 0
-40 13 -32 42 3 14 13 21 43 27 3 0 10 -4 16 -10z m-407 -29 c0 -5 -4 -10 -9
-10 -6 0 -13 5 -16 10 -3 6 1 10 9 10 9 0 16 -4 16 -10z m-175 -50 c7 0 15 -6
17 -12 6 -17 90 -16 96 1 4 11 6 11 13 0 7 -11 9 -11 9 -1 0 8 5 10 13 5 6 -4
16 -8 21 -8 5 0 11 -6 14 -13 5 -16 -62 -45 -110 -48 -21 -1 -45 -9 -54 -18
-20 -20 -48 -20 -68 -1 -8 8 -26 15 -40 15 -14 0 -26 2 -26 5 0 15 34 55 46
55 8 0 14 6 14 13 0 7 5 18 12 25 9 9 14 9 21 -3 4 -8 14 -15 22 -15z m585
-75 c0 -17 -2 -18 -24 -9 -23 9 -20 24 4 24 11 0 20 -7 20 -15z m440 -116 c0
-16 -4 -29 -9 -29 -9 0 -21 57 -13 65 11 10 22 -8 22 -36z m-428 -66 c-3 -16
-7 -22 -10 -15 -4 13 4 42 11 42 2 0 2 -12 -1 -27z m-28 1 c7 -19 -2 -37 -15
-29 -12 8 -12 45 0 45 5 0 12 -7 15 -16z"/>
<path d="M2961 1944 c-12 -15 -21 -33 -21 -40 0 -8 -4 -14 -10 -14 -5 0 -10
-9 -10 -20 0 -11 -4 -20 -10 -20 -5 0 -10 -8 -10 -18 0 -10 -4 -22 -9 -27 -13
-16 -31 -75 -22 -75 5 0 8 -7 7 -16 0 -9 13 -25 29 -35 32 -19 75 -25 75 -10
0 5 -10 11 -22 15 -33 8 -85 54 -73 63 9 7 115 208 115 218 0 14 -21 2 -39
-21z"/>
<path d="M3021 1948 c-16 -25 -32 -93 -34 -148 -2 -26 2 -35 16 -38 14 -3 17
4 17 40 0 24 4 48 9 54 11 12 24 114 14 114 -5 0 -15 -10 -22 -22z"/>
<path d="M3715 1830 c3 -5 8 -10 11 -10 2 0 4 5 4 10 0 6 -5 10 -11 10 -5 0
-7 -4 -4 -10z"/>
<path d="M4451 1813 c0 -5 13 -18 30 -31 26 -21 31 -22 44 -8 13 13 11 16 -17
30 -33 17 -58 21 -57 9z"/>
<path d="M3756 1775 c-3 -8 -12 -15 -20 -15 -14 0 -31 -29 -22 -37 2 -3 21 6
40 20 30 20 34 26 22 36 -11 9 -15 8 -20 -4z"/>
<path d="M4465 1710 c-11 -16 -26 -30 -32 -30 -7 0 -13 -4 -13 -10 0 -5 -7
-10 -15 -10 -7 0 -18 -6 -22 -13 -4 -8 -16 -16 -26 -20 -20 -7 -117 10 -131
24 -6 5 -36 9 -67 9 -32 0 -61 5 -64 10 -3 6 -17 10 -30 10 -13 0 -27 5 -30
10 -3 6 -17 10 -30 10 -13 0 -27 5 -30 10 -9 15 -51 12 -65 -5 -7 -8 -32 -24
-57 -35 -24 -10 -50 -26 -59 -35 -17 -17 -34 -20 -34 -6 0 5 -9 7 -20 4 -11
-3 -20 -12 -20 -19 0 -8 -4 -14 -10 -14 -17 0 -13 -209 4 -226 9 -9 17 -10 21
-4 4 6 122 10 326 10 312 0 319 0 319 20 0 11 5 20 10 20 6 0 10 20 10 44 0
25 5 48 10 51 6 3 10 15 10 26 0 10 5 19 10 19 6 0 10 11 10 24 0 13 8 34 19
47 10 13 20 35 23 49 3 14 9 33 13 43 12 28 -8 19 -30 -13z"/>
<path d="M3646 1715 c4 -8 8 -15 10 -15 2 0 4 7 4 15 0 8 -4 15 -10 15 -5 0
-7 -7 -4 -15z"/>
<path d="M80 1670 c0 -5 9 -10 20 -10 11 0 20 5 20 10 0 6 -9 10 -20 10 -11 0
-20 -4 -20 -10z"/>
<path d="M184 1651 c3 -5 20 -12 38 -15 102 -21 113 -20 84 10 -16 15 -131 20
-122 5z"/>
<path d="M3760 1656 c0 -2 7 -6 15 -10 8 -3 15 -1 15 4 0 6 -7 10 -15 10 -8 0
-15 -2 -15 -4z"/>
<path d="M350 1610 c0 -5 7 -10 16 -10 8 0 12 5 9 10 -3 6 -10 10 -16 10 -5 0
-9 -4 -9 -10z"/>
<path d="M6000 1570 c0 -5 5 -10 10 -10 6 0 10 5 10 10 0 6 -4 10 -10 10 -5 0
-10 -4 -10 -10z"/>
<path d="M6060 1560 c-21 -7 -19 -8 15 -8 22 0 51 4 65 8 21 7 19 8 -15 8 -22
0 -51 -4 -65 -8z"/>
<path d="M5955 1450 c-3 -5 1 -10 10 -10 9 0 13 5 10 10 -3 6 -8 10 -10 10 -2
0 -7 -4 -10 -10z"/>
<path d="M6000 1385 c0 -30 -4 -55 -10 -55 -5 0 -10 -5 -10 -12 0 -6 11 -1 25
12 14 13 23 26 20 28 -3 3 1 12 8 20 9 12 9 16 0 19 -7 3 -13 13 -13 24 0 10
-4 19 -10 19 -5 0 -10 -25 -10 -55z"/>
<path d="M5948 1353 c7 -3 16 -2 19 1 4 3 -2 6 -13 5 -11 0 -14 -3 -6 -6z"/>
<path d="M480 1310 c0 -5 9 -10 21 -10 11 0 17 5 14 10 -3 6 -13 10 -21 10 -8
0 -14 -4 -14 -10z"/>
<path d="M5847 1283 c-10 -9 -9 -53 1 -53 16 0 21 13 12 31 -7 12 -6 19 3 22
7 3 7 6 1 6 -6 1 -14 -2 -17 -6z"/>
<path d="M6000 1270 c0 -11 5 -20 10 -20 6 0 10 9 10 20 0 11 -4 20 -10 20 -5
0 -10 -9 -10 -20z"/>
<path d="M5940 1270 c0 -5 4 -10 9 -10 6 0 13 5 16 10 3 6 -1 10 -9 10 -9 0
-16 -4 -16 -10z"/>
<path d="M4312 1115 c0 -16 2 -22 5 -12 2 9 2 23 0 30 -3 6 -5 -1 -5 -18z"/>
<path d="M6030 1115 c0 -31 -49 -95 -73 -95 -8 0 -20 -14 -27 -30 -7 -17 -21
-36 -30 -43 -10 -7 -19 -21 -21 -32 -3 -16 -12 -20 -44 -20 -39 0 -40 1 -50
47 -5 25 -13 50 -17 54 -5 4 -8 29 -8 56 0 43 -2 48 -22 48 -20 -1 -21 -2 -8
-13 19 -15 22 -47 5 -47 -16 0 -26 -51 -14 -67 7 -7 6 -12 -2 -15 -13 -4 -23
-100 -15 -134 5 -18 12 -21 38 -17 41 5 100 -5 93 -16 -2 -5 12 -11 33 -14 49
-8 206 3 210 14 6 15 39 10 46 -6 3 -8 13 -15 21 -15 9 0 13 5 9 11 -3 6 8 31
26 55 l31 44 -30 0 c-18 0 -31 5 -31 13 0 8 -4 7 -10 -3 -6 -10 -10 -11 -10
-2 0 6 -4 12 -10 12 -5 0 -19 8 -31 18 -52 43 -52 42 -46 124 4 46 2 80 -3 83
-6 3 -10 -1 -10 -10z m-190 -245 c0 -5 -4 -10 -9 -10 -6 0 -13 5 -16 10 -3 6
1 10 9 10 9 0 16 -4 16 -10z"/>
<path d="M5320 1069 c0 -5 5 -7 10 -4 6 3 10 8 10 11 0 2 -4 4 -10 4 -5 0 -10
-5 -10 -11z"/>
<path d="M5048 993 c-10 -2 -15 -10 -11 -19 3 -8 0 -14 -6 -14 -6 0 -11 6 -11
13 -1 8 -5 7 -13 -4 -16 -21 -64 -33 -70 -16 -3 8 -11 5 -24 -10 -17 -19 -31
-23 -82 -23 -34 0 -61 4 -61 10 0 6 -5 10 -11 10 -13 0 -39 -25 -39 -38 0 -5
-6 -22 -14 -38 -41 -86 -48 -108 -48 -144 0 -22 -3 -40 -7 -40 -16 0 -42 -88
-29 -96 21 -13 79 7 90 32 13 28 33 33 26 6 -9 -33 23 -42 139 -38 108 4 147
11 138 26 -2 4 7 17 20 30 32 30 22 43 -27 35 -29 -5 -43 -3 -49 6 -7 11 -9
10 -9 -3 0 -21 -40 -25 -40 -5 0 8 -4 7 -10 -3 -8 -13 -13 -13 -31 -2 -16 10
-24 11 -29 3 -3 -7 -18 -14 -31 -16 -20 -4 -25 0 -27 20 -2 25 -1 25 88 25 53
0 90 4 90 10 0 14 43 12 59 -2 10 -10 15 -10 18 -2 2 7 12 10 21 8 9 -3 35 4
57 16 45 23 67 25 98 8 12 -7 40 -14 61 -17 38 -6 64 -31 32 -31 -9 0 -16 5
-16 10 0 7 -6 7 -19 0 -11 -5 -32 -10 -48 -10 l-27 0 22 -16 c12 -8 22 -25 22
-37 0 -13 3 -17 8 -11 5 9 11 8 20 -2 10 -11 10 -14 0 -14 -7 0 -3 -7 10 -15
16 -12 41 -15 89 -13 l68 3 1 50 c1 54 -7 65 -48 65 -16 0 -28 5 -28 10 0 6 6
10 13 10 38 0 58 85 30 134 -14 26 -1 62 40 104 17 17 29 32 26 33 -2 0 -15 3
-29 5 -14 3 -35 -1 -48 -8 -18 -9 -25 -10 -31 0 -6 10 -19 10 -60 1 -49 -10
-107 -8 -144 7 -8 3 -21 -2 -30 -10 -8 -9 -17 -12 -19 -7 -4 11 -39 20 -60 14z
m362 -39 c0 -8 -10 -14 -25 -14 -38 0 -34 24 5 27 11 1 20 -4 20 -13z m-50
-59 c0 -8 0 -18 1 -22 1 -12 -15 -13 -30 -4 -12 8 -12 12 -2 25 17 20 31 20
31 1z m-660 -214 c0 -12 -20 -25 -27 -18 -7 7 6 27 18 27 5 0 9 -4 9 -9z"/>
<path d="M3250 975 c0 -5 5 -17 10 -25 5 -8 10 -10 10 -5 0 6 -5 17 -10 25 -5
8 -10 11 -10 5z"/>
<path d="M3785 972 c-9 -9 -5 -92 4 -92 4 0 8 -36 8 -80 0 -111 10 -119 156
-120 l108 0 10 -30 c6 -16 18 -30 26 -30 28 0 74 -34 70 -52 -3 -10 3 -18 16
-22 25 -6 37 0 37 20 0 8 4 14 9 14 12 0 22 33 32 110 15 104 17 170 8 176 -5
3 -6 11 -2 17 3 7 -2 4 -13 -5 -24 -21 -93 -45 -116 -40 -10 2 -18 10 -18 18
0 19 -39 18 -46 -1 -7 -17 -59 -21 -69 -5 -10 17 -62 12 -69 -7 -6 -14 -8 -14
-22 5 -23 33 -25 60 -6 71 9 5 15 11 12 13 -53 35 -120 55 -135 40z m88 -104
c-6 -12 -53 -10 -53 2 0 6 7 10 15 10 8 0 15 5 15 10 0 6 6 5 14 -2 8 -7 12
-16 9 -20z m357 -172 c0 -22 -17 -36 -41 -36 -16 0 -29 -4 -29 -10 0 -17 -67
-12 -74 6 -4 9 -5 18 -4 19 22 17 52 24 96 25 28 0 52 -2 52 -4z"/>
<path d="M4960 970 c0 -5 5 -10 10 -10 6 0 10 5 10 10 0 6 -4 10 -10 10 -5 0
-10 -4 -10 -10z"/>
<path d="M1500 870 c0 -5 5 -10 10 -10 6 0 10 5 10 10 0 6 -4 10 -10 10 -5 0
-10 -4 -10 -10z"/>
<path d="M5772 681 c10 -16 7 -23 -18 -45 -16 -14 -40 -26 -54 -26 -20 0 -22
-2 -10 -11 11 -8 12 -12 3 -16 -22 -8 -14 -25 10 -19 12 3 16 3 10 0 -30 -13
-6 -64 29 -64 23 0 25 -42 3 -60 -20 -17 -19 -40 3 -40 27 -1 53 -25 46 -44
-3 -9 -12 -16 -19 -16 -14 0 -27 -63 -18 -86 4 -11 14 -14 31 -11 32 6 52 -1
52 -19 0 -8 9 -14 20 -14 10 0 23 -7 28 -15 4 -9 21 -20 38 -24 27 -9 25 -9
-18 -10 -27 -1 -48 -6 -50 -13 -3 -9 -37 -15 -99 -19 l-94 -5 128 -2 c77 -1
127 -6 127 -12 0 -5 9 -10 19 -10 11 0 49 -16 85 -36 36 -19 70 -32 76 -29 5
3 10 -3 10 -14 0 -17 6 -21 36 -21 29 0 35 3 30 16 -3 9 -6 18 -6 20 0 2 -12
4 -27 4 -34 0 -86 42 -78 62 10 24 -22 41 -78 41 l-52 0 53 9 c35 6 52 14 52
24 0 11 -6 13 -21 9 -16 -5 -20 -4 -15 6 3 8 9 22 12 32 4 9 10 17 15 17 5 0
9 18 9 40 0 33 -3 40 -19 40 -11 0 -21 -5 -23 -11 -2 -7 -11 -7 -28 0 l-25 10
25 0 c14 1 38 13 53 27 16 14 31 23 34 20 12 -11 63 25 63 45 0 11 9 30 21 42
32 34 62 97 47 97 -10 0 -10 2 1 9 19 12 -14 30 -42 23 -20 -5 -20 -5 -1 26
21 36 16 35 109 37 152 5 193 35 46 35 -55 0 -102 4 -106 9 -3 5 -101 10 -220
10 -210 1 -215 1 -203 -18z m-8 -137 c9 -22 8 -24 -9 -24 -8 0 -15 9 -15 20 0
24 15 27 24 4z m396 -31 c0 -20 -3 -24 -11 -16 -7 7 -9 19 -6 27 10 24 17 19
17 -11z m-165 -243 c-3 -5 -13 -10 -21 -10 -8 0 -14 5 -14 10 0 6 9 10 21 10
11 0 17 -4 14 -10z"/>
<path d="M6639 657 c5 -5 30 -7 57 -5 l49 3 -57 5 c-31 3 -53 1 -49 -3z"/>
<path d="M7060 653 c0 -9 -49 -33 -67 -33 -7 0 -13 -7 -13 -16 0 -9 -9 -18
-20 -21 -11 -3 -20 -12 -20 -20 0 -8 -4 -11 -10 -8 -5 3 -10 -1 -10 -9 0 -14
-12 -20 -32 -17 -5 0 -8 -8 -8 -18 0 -11 -9 -23 -20 -26 -15 -5 -20 -15 -20
-41 0 -19 5 -34 11 -34 15 0 69 39 69 50 0 13 89 111 134 148 8 6 24 12 34 12
26 0 34 11 21 27 -12 14 -49 18 -49 6z"/>
<path d="M5658 543 c7 -3 16 -2 19 1 4 3 -2 6 -13 5 -11 0 -14 -3 -6 -6z"/>
<path d="M2869 536 c-6 -6 -214 -15 -370 -17 l-135 -2 -1 -35 c-1 -19 -7 -38
-14 -42 -26 -17 -4 -36 114 -98 l28 -14 -28 -15 c-40 -20 -44 -26 -45 -62 -1
-17 -5 -31 -10 -31 -4 0 -8 -5 -8 -12 0 -6 3 -8 6 -5 7 6 63 -21 74 -35 13
-17 340 -35 340 -19 0 6 0 14 -1 19 0 4 10 9 23 12 22 6 22 7 -9 25 -29 17
-33 24 -33 62 0 24 4 43 9 43 5 0 15 16 21 35 6 19 16 35 21 35 5 0 9 11 9 24
0 13 7 26 14 29 11 4 14 19 12 51 -2 44 -8 61 -17 52z"/>
<path d="M2900 500 c0 -11 4 -20 9 -20 13 0 32 26 24 33 -13 14 -33 6 -33 -13z"/>
<path d="M6866 345 c-22 -13 -43 -22 -48 -19 -4 3 -8 2 -8 -3 0 -4 -13 -21
-28 -38 -72 -79 -142 -192 -158 -258 -6 -26 -4 -27 23 -25 23 2 29 6 25 20 -2
10 11 41 30 70 18 29 40 66 48 83 8 16 42 57 74 90 33 33 59 62 59 65 -1 3 19
6 45 8 73 4 82 -30 27 -102 -39 -51 -44 -69 -18 -64 25 5 74 79 70 105 -2 12
0 24 6 26 11 3 -9 47 -27 59 -22 15 -82 7 -120 -17z"/>
<path d="M6427 333 c-4 -3 -7 -27 -7 -52 l1 -46 19 24 c11 13 20 29 20 37 0 8
5 14 11 14 6 0 4 7 -5 15 -16 16 -29 19 -39 8z"/>
<path d="M6765 310 c3 -5 8 -10 11 -10 2 0 4 5 4 10 0 6 -5 10 -11 10 -5 0 -7
-4 -4 -10z"/>
<path d="M6480 224 c-22 -20 -40 -43 -40 -50 0 -8 -4 -14 -10 -14 -5 0 -9 -3
-8 -7 1 -5 -4 -27 -12 -50 -12 -38 -17 -43 -44 -43 -57 -1 -131 -25 -134 -44
-3 -16 1 -18 30 -12 72 15 118 18 118 7 0 -16 19 -13 38 6 16 16 17 16 20 0 4
-21 50 -23 58 -2 4 11 21 15 55 15 37 0 49 4 49 15 0 10 -14 17 -40 21 -44 7
-45 10 -29 51 21 52 28 96 18 119 -12 32 -22 30 -69 -12z m45 -26 c-21 -68
-75 -146 -75 -108 0 6 5 8 11 5 6 -4 9 -1 7 7 -4 18 42 118 54 118 5 0 6 -10
3 -22z"/>
<path d="M7560 182 c-38 -29 -69 -63 -70 -74 0 -18 24 -6 61 30 59 55 64 51
61 -50 -2 -73 0 -88 12 -88 12 0 15 16 14 83 0 82 -12 127 -32 127 -6 0 -27
-13 -46 -28z"/>
<path d="M7430 145 c7 -9 15 -13 17 -11 7 7 -7 26 -19 26 -6 0 -6 -6 2 -15z"/>
<path d="M7000 123 c-27 -19 -54 -49 -83 -95 -19 -27 -19 -28 0 -28 11 0 32
18 49 39 16 22 40 45 53 51 23 10 24 10 18 -22 -3 -18 -8 -41 -12 -51 -5 -12
-2 -17 9 -17 31 0 50 102 24 128 -16 16 -29 15 -58 -5z"/>
<path d="M7253 98 c-19 -21 -53 -80 -53 -93 0 -17 29 0 45 27 20 34 34 24 15
-11 -9 -18 -8 -21 8 -21 21 0 32 25 32 73 0 19 -4 26 -12 21 -8 -5 -9 -2 -5 9
9 24 -6 21 -30 -5z"/>
<path d="M7336 65 c-41 -62 -42 -65 -21 -65 20 0 69 75 59 91 -4 8 -3 9 4 5 7
-4 12 -1 12 8 0 29 -17 17 -54 -39z"/>
<path d="M4580 92 c-8 -9 -28 -34 -43 -55 -24 -32 -26 -37 -10 -37 10 0 32 17
50 37 l32 38 1 -37 c0 -27 4 -38 15 -38 11 0 15 11 15 36 0 65 -30 93 -60 56z"/>
<path d="M7086 73 c-3 -16 -8 -38 -12 -50 -5 -17 -2 -23 10 -23 18 0 36 38 36
76 0 33 -26 31 -34 -3z"/>
<path d="M7863 62 c-28 -20 -59 -42 -70 -49 -16 -11 -15 -12 12 -12 24 -1 41
10 75 44 24 24 41 47 39 50 -3 3 -28 -12 -56 -33z"/>
<path d="M7490 80 c0 -7 -3 -10 -7 -6 -4 4 -18 -10 -31 -31 -22 -35 -23 -36
-19 -10 5 31 -8 36 -23 8 -16 -32 -12 -41 20 -41 25 0 33 7 50 41 12 23 19 44
16 47 -3 3 -6 -1 -6 -8z"/>
<path d="M1632 54 c-23 -49 -18 -55 51 -52 37 2 60 7 57 13 -3 6 -17 9 -31 7
-16 -2 -29 3 -32 11 -4 10 2 13 21 9 15 -3 24 -1 20 3 -4 4 -1 13 8 19 12 9 5
12 -34 14 -44 2 -50 -1 -60 -24z"/>
<path d="M5693 48 c-23 -6 -33 -15 -33 -28 0 -23 29 -27 62 -9 15 8 22 8 28
-1 4 -6 18 -10 31 -7 l24 4 -22 8 c-13 4 -23 11 -23 16 0 17 -35 26 -67 17z"/>
<path d="M5406 16 c3 -9 18 -16 32 -16 29 0 20 14 -15 25 -18 5 -22 3 -17 -9z"/>
<path d="M6720 10 c0 -5 12 -10 28 -9 24 0 25 1 7 9 -27 12 -35 12 -35 0z"/>
<path d="M6790 10 c0 -6 7 -10 15 -10 8 0 15 2 15 4 0 2 -7 6 -15 10 -8 3 -15
1 -15 -4z"/>
</g>
</svg>
